<?xml version="1.0" encoding="UTF-8"?>
<svg version="1.1" xmlns="http://www.w3.org/2000/svg" width="1024" height="1024">
<path d="M0 0 C337.92 0 675.84 0 1024 0 C1024 337.92 1024 675.84 1024 1024 C686.08 1024 348.16 1024 0 1024 C0 686.08 0 348.16 0 0 Z " fill="#FEFEFE" transform="translate(0,0)"/>
<path d="M0 0 C0.81845398 0.0066568 1.63690796 0.0133136 2.48016357 0.02017212 C13.27906392 0.16692854 24.05311389 0.8980301 34.828125 1.5859375 C51.07941467 2.61734989 67.32800994 3.43169569 83.59765625 4.09765625 C103.03336096 4.89541682 122.46052744 5.83250523 141.88671875 6.83203125 C142.59468959 6.86841863 143.30266044 6.904806 144.03208494 6.94229603 C154.28885813 7.46953839 164.54540805 8.00105774 174.8019104 8.53353882 C187.20504581 9.17730017 199.60829942 9.81876312 212.01171875 10.45703125 C213.0850206 10.51228513 213.0850206 10.51228513 214.18000531 10.56865525 C236.62017901 11.72332547 259.06253177 12.82428325 281.5078125 13.875 C283.48286427 13.96762273 283.48286427 13.96762273 285.49781609 14.06211662 C303.00721635 14.88126193 320.51776421 15.67070893 338.03411865 16.32714844 C350.62313442 16.83513471 362.47794122 18.89014321 371.578125 28.2109375 C378.5653296 36.61093952 381.10580231 45.37246664 380.8984375 56.171875 C380.8882962 57.15634613 380.87815491 58.14081726 380.8677063 59.15512085 C380.646589 72.15251275 379.68969794 85.12113803 378.78384399 98.08496094 C378.2589453 105.59710923 377.76043142 113.1110375 377.26078987 120.62490082 C377.14100068 122.42590677 377.02096619 124.22689642 376.90069389 126.02787018 C375.34660491 149.318582 373.96190239 172.61931294 372.58518219 195.92107391 C372.39348815 199.16252305 372.20110299 202.40393042 372.00848389 205.64532471 C370.68964794 227.84661808 369.39253786 250.04852915 368.22834778 272.25854492 C367.77034928 280.95634385 367.24055994 289.64674974 366.640625 298.3359375 C366.54940653 299.6749625 366.45824475 301.01399137 366.3671875 302.35302734 C366.29242187 303.44824707 366.21765625 304.5434668 366.140625 305.671875 C364.06691171 336.48444438 362.44835207 367.32642125 360.89089966 398.16854858 C360.06959114 414.37886655 359.14897216 430.57772508 358.078125 446.7734375 C356.92190152 464.26701744 355.92538255 481.76529639 355.015625 499.2734375 C354.95280334 500.48154083 354.88998169 501.68964417 354.82525635 502.93435669 C354.25047283 514.01279133 353.68576959 525.09173554 353.12251282 536.17076111 C352.94216071 539.70846398 352.75997655 543.24607101 352.5774231 546.78366089 C352.4575114 549.12528046 352.34079056 551.46704281 352.22436523 553.80883789 C352.15232674 555.21371191 352.08015155 556.61857893 352.0078125 558.0234375 C351.94835449 559.20550781 351.88889648 560.38757813 351.82763672 561.60546875 C351.64141389 564.29640691 351.39316664 566.93970192 351.08032227 569.6159668 C350.56964923 574.04745178 350.30643358 578.46269703 350.11328125 582.91796875 C350.03623757 584.56422153 349.95891647 586.21046134 349.88134766 587.85668945 C349.82276581 589.12447739 349.82276581 589.12447739 349.76300049 590.4178772 C347.51748115 638.22839978 347.51748115 638.22839978 339.203125 647.1484375 C329.50860939 655.89814862 317.69256965 655.65862773 305.33752441 655.111763 C299.09129556 654.78775975 292.85062985 654.37576342 286.609375 653.96875 C284.56427557 653.83861213 282.5191496 653.7088909 280.47399902 653.57955933 C275.0958421 653.23857498 269.71798975 652.8930185 264.34020996 652.54614258 C254.80527003 651.9317218 245.26987003 651.32448666 235.734375 650.71875 C234.70165152 650.65303047 233.66892803 650.58731094 232.6049099 650.51959991 C214.6517652 649.37922889 196.69418946 648.36224718 178.72920227 647.42889404 C171.93796282 647.07436493 165.14783327 646.69905431 158.35760021 646.32583332 C156.24170149 646.20962357 154.12577282 646.09396987 152.00984192 645.97834778 C141.27844407 645.38920517 130.55248117 644.71550399 119.82614136 644.04148865 C103.06179575 642.98817464 86.29597531 641.95914081 69.52984238 640.93470764 C67.75514319 640.82626413 65.98044688 640.71777335 64.20575333 640.60923767 C38.60793175 639.04383496 13.00888617 637.51535858 -12.59838867 636.11157227 C-17.87350523 635.82165938 -23.14809751 635.52431469 -28.421875 635.2109375 C-29.46072845 635.14931931 -29.46072845 635.14931931 -30.52056885 635.0864563 C-32.3306031 634.97542535 -34.13995344 634.85339527 -35.94921875 634.73046875 C-36.88886475 634.66706299 -37.82851074 634.60365723 -38.79663086 634.53833008 C-48.06581039 633.38237641 -55.38335619 629.30437827 -61.421875 622.2109375 C-67.20400481 613.12275739 -67.61112115 605.07607447 -67.59765625 594.54296875 C-67.59623123 593.26452591 -67.59480621 591.98608307 -67.59333801 590.66889954 C-67.52587501 575.82040026 -66.64459461 561.02056069 -65.74774933 546.20339584 C-65.50890788 542.22491517 -65.27989922 538.24586827 -65.05029297 534.2668457 C-64.77039762 529.42281391 -64.49008121 524.57881199 -64.20587158 519.73503113 C-63.67487444 510.67631006 -63.16586288 501.61700084 -62.69921875 492.5546875 C-62.64516373 491.50579849 -62.5911087 490.45690948 -62.53541565 489.37623596 C-62.42721317 487.27411058 -62.31904349 485.17198351 -62.21090698 483.06985474 C-60.31739073 446.46034725 -58.00133195 409.87439808 -55.76654625 373.28455162 C-54.49672589 352.49174688 -53.24767837 331.69774915 -52.01193619 310.90289307 C-51.85931905 308.33499602 -51.7065743 305.7671066 -51.55380249 303.19921875 C-50.40673107 283.91460786 -49.26898551 264.62946463 -48.140625 245.34375 C-46.23387951 212.76064655 -44.32632055 180.17777493 -42.30089188 147.60179138 C-42.17355095 145.55043566 -42.04687706 143.49903973 -41.92037964 141.44763184 C-41.68858495 137.69802737 -41.45415746 133.94859793 -41.21875 130.19921875 C-41.11908684 128.58201683 -41.11908684 128.58201683 -41.01741028 126.93214417 C-40.72794042 122.37048588 -40.40013471 117.8262497 -39.91479492 113.28100586 C-39.28469472 107.23311879 -39.0195345 101.17408169 -38.73828125 95.1015625 C-38.61404271 92.54556755 -38.48968998 89.98957814 -38.36523438 87.43359375 C-38.17493887 83.46540867 -37.98607811 79.49717308 -37.79956055 75.52880859 C-37.18747046 62.57844173 -36.56599164 49.63584348 -35.43359375 36.71875 C-35.35895401 35.83930725 -35.28431427 34.9598645 -35.20741272 34.05377197 C-34.27896233 24.16698708 -31.54352564 15.41136746 -24.421875 8.2109375 C-16.91598181 2.06103596 -9.71856885 -0.14905144 0 0 Z " fill="#D42E78" transform="translate(600.421875,231.7890625)"/>
<path d="M0 0 C9.80191749 9.81958709 12.57462001 23.8141799 16.13183594 36.77636719 C17.00662478 39.96162196 17.90026041 43.14113984 18.796875 46.3203125 C19.36307376 48.3486531 19.92821678 50.37728877 20.4921875 52.40625 C20.7577243 53.35415405 21.02326111 54.30205811 21.29684448 55.27868652 C21.65819992 56.60156677 21.65819992 56.60156677 22.02685547 57.95117188 C22.23970184 58.72328003 22.45254822 59.49538818 22.67184448 60.29089355 C23.125 62.4375 23.125 62.4375 23.125 66.4375 C10.76359128 66.65865812 -1.48139333 65.96047489 -13.8125 65.16015625 C-15.90744522 65.02762697 -18.0024165 64.89550908 -20.09741211 64.76377869 C-25.57607723 64.41816282 -31.05436556 64.06689625 -36.53259277 63.7144165 C-42.07619102 63.35879288 -47.6201445 63.00880007 -53.1640625 62.65820312 C-61.30877584 62.14223985 -69.45336477 61.62438958 -77.59765625 61.10180664 C-78.49386846 61.04434643 -79.39008066 60.98688622 -80.31345081 60.92768478 C-86.77709637 60.51179719 -93.23934145 60.077905 -99.70085144 59.62994385 C-105.19570027 59.29679944 -110.68371566 59.17476297 -116.1875 59.125 C-117.27611328 59.09599609 -118.36472656 59.06699219 -119.48632812 59.03710938 C-129.43252499 58.95945138 -137.71246763 61.30983776 -145.0546875 68.265625 C-154.20895153 79.18787994 -155.03432026 92.76919129 -155.91015625 106.40234375 C-156.0336721 108.2271653 -156.0336721 108.2271653 -156.15968323 110.08885193 C-156.93919195 121.85959001 -157.55782205 133.63798966 -158.13623047 145.42007446 C-158.44607121 151.71274888 -158.76787123 158.00481133 -159.08984375 164.296875 C-159.18747513 166.20627617 -159.18747513 166.20627617 -159.28707886 168.1542511 C-160.78725801 197.30492573 -162.57464716 226.43809273 -164.5625 255.55929565 C-165.68978088 272.11054575 -166.64676806 288.66891034 -167.56451416 305.23297119 C-168.33690294 319.16005212 -169.15508583 333.08178975 -170.07296753 347.00003052 C-172.46678022 383.33968358 -174.39283515 419.7085657 -176.41028881 456.07059574 C-176.89749969 464.8491985 -177.38779306 473.62762784 -177.87852287 482.40603447 C-178.23240552 488.73850101 -178.58548661 495.0710123 -178.93858719 501.40352249 C-179.05912998 503.56458317 -179.17980581 505.72563638 -179.30050659 507.88668823 C-180.39266848 527.45036068 -181.43957223 547.01616596 -182.46364212 566.58351517 C-183.28480992 582.27221115 -184.11253862 597.96056244 -184.94297504 613.64877033 C-185.22056104 618.89348823 -185.4975243 624.13823761 -185.77319336 629.38305664 C-186.04645587 634.58166115 -186.32124957 639.7801827 -186.59708977 644.97865105 C-186.7000784 646.92442942 -186.80253882 648.87023584 -186.90442085 650.81607246 C-187.1736554 655.95485011 -187.453647 661.09275089 -187.75172806 666.22993851 C-187.8675371 668.30385394 -187.96701705 670.37797152 -188.06369019 672.45285034 C-188.12895905 673.6117276 -188.19422791 674.77060486 -188.26147461 675.96459961 C-188.3100914 676.93908554 -188.35870819 677.91357147 -188.40879822 678.91758728 C-189.10164499 682.66256094 -190.83574425 684.70515018 -193.7421875 687.0703125 C-202.05928276 692.40178382 -210.06026544 693.65618101 -219.875 692.4375 C-228.57077077 690.23711032 -236.33270056 685.55614185 -241.875 678.4375 C-245.3586288 671.12159547 -247.46525931 663.32181966 -249.60546875 655.53515625 C-250.13872426 653.62374711 -250.67198456 651.7123393 -251.20543098 649.80098343 C-251.77122968 647.77000251 -252.33438592 645.73830544 -252.89682007 643.70639038 C-254.69123569 637.22571376 -256.50460634 630.75032794 -258.31650734 624.27452278 C-258.94044516 622.04415958 -259.56381158 619.81363714 -260.18717957 617.58311462 C-264.24378446 603.07729892 -268.38635336 588.59687561 -272.5625 574.125 C-272.91007355 572.91983734 -273.25764709 571.71467468 -273.61575317 570.47299194 C-279.26926498 550.8823738 -284.99808435 531.31403282 -290.79174805 511.7644043 C-294.02298745 500.84608376 -297.16364125 489.9069679 -300.21879578 478.93804932 C-303.18305589 468.30333767 -306.23242768 457.69385502 -309.29489136 447.08706665 C-310.173828 444.04280125 -311.05189205 440.99828586 -311.92951298 437.95364094 C-316.2520953 422.95842824 -320.58931596 407.96748585 -324.93576813 392.97917557 C-327.22923938 385.06980601 -329.52129078 377.1600251 -331.8125 369.25 C-332.19807823 367.91889442 -332.19807823 367.91889442 -332.59144592 366.56089783 C-339.88029502 341.39394941 -347.07590467 316.20361476 -354.1373291 290.97195435 C-360.18944867 269.35107861 -366.34809157 247.76227666 -372.5625 226.1875 C-373.00869979 224.63795028 -373.45489731 223.08839991 -373.90109253 221.53884888 C-378.05198047 207.12579667 -382.21173353 192.7153314 -386.39070129 178.31039429 C-387.80872791 173.42179344 -389.22473306 168.53260791 -390.64077759 163.64343262 C-391.59853613 160.34124296 -392.56022084 157.04021506 -393.5222168 153.73925781 C-394.09310265 151.77023054 -394.66383232 149.80115798 -395.234375 147.83203125 C-395.49058121 146.95756851 -395.74678741 146.08310577 -396.01075745 145.18214417 C-399.5940965 132.77250779 -400.71451799 120.88386684 -394.65625 109.05859375 C-385.31122329 93.7171749 -367.35475871 89.59086716 -351.08428955 85.11502075 C-346.55305542 83.86669066 -342.03094106 82.58592259 -337.5078125 81.30859375 C-336.48186981 81.0193956 -335.45592712 80.73019745 -334.39889526 80.43223572 C-319.22796421 76.1422554 -304.10811574 71.67484883 -288.98217773 67.2294426 C-286.48965664 66.49696038 -283.99703923 65.76480683 -281.50439453 65.03274536 C-254.68035821 57.15440772 -227.86500978 49.24698498 -201.05908203 41.30725098 C-191.36148652 38.43489751 -181.66367491 35.56327506 -171.9655304 32.69277573 C-170.4093999 32.23217524 -168.85327802 31.77154562 -167.29716492 31.31088638 C-145.33164804 24.80847817 -123.35796498 18.33622789 -101.35449219 11.96313477 C-89.34719095 8.48081229 -77.38095647 4.87417612 -65.42578125 1.21710205 C-59.74736282 -0.51840806 -54.06324863 -2.23447283 -48.375 -3.9375 C-47.24964844 -4.27910156 -46.12429688 -4.62070313 -44.96484375 -4.97265625 C-28.73113493 -9.82168616 -13.94361618 -11.18759155 0 0 Z " fill="#D42F78" transform="translate(681.875,127.5625)"/>
<path d="M0 0 C4.75915298 3.53678904 8.09973702 7.40460302 11.5625 12.1875 C12.07135742 12.87803467 12.58021484 13.56856934 13.10449219 14.2800293 C14.74559308 16.5134166 16.37417471 18.75547246 18 21 C18.8360376 22.15097168 18.8360376 22.15097168 19.68896484 23.32519531 C22.98426241 27.86487761 26.26454516 32.41517917 29.53857422 36.97021484 C32.67484251 41.32620124 35.83784518 45.66278463 39 50 C35.26895206 52.10576029 31.26979554 53.19047141 27.17578125 54.35546875 C26.40657349 54.57761047 25.63736572 54.7997522 24.84484863 55.02862549 C22.33518093 55.75219284 19.8239088 56.47000131 17.3125 57.1875 C15.56137754 57.69061209 13.81032003 58.19395028 12.05932617 58.69750977 C-1.27642776 62.52758974 -14.6308488 66.28826957 -28 70 C-79.48612782 81.28683433 -79.48612782 81.28683433 -127 102 C-127.58523437 102.37382812 -128.17046875 102.74765625 -128.7734375 103.1328125 C-135.67999075 108.14619887 -140.50316766 117.70706596 -142 126 C-143.65750512 139.61302812 -140.08751112 151.51463579 -136.09472656 164.44287109 C-134.38048713 170.01300235 -132.74468994 175.60611927 -131.10327148 181.19802856 C-130.48838695 183.28950069 -129.87039945 185.38003755 -129.25195312 187.47045898 C-124.66420598 203.00584831 -120.27414991 218.59719866 -115.88085938 234.18847656 C-110.7830903 252.27518136 -105.62373791 270.34399409 -100.45631981 288.41089821 C-97.67669722 298.12937925 -94.89994356 307.8486793 -92.12333488 317.56802177 C-90.68284742 322.61024205 -89.24216585 327.65240686 -87.80151367 332.69458008 C-85.68700604 340.0952981 -83.57259537 347.49604382 -81.45828152 354.89681721 C-79.91101754 360.31272982 -78.36372077 365.72863307 -76.81640625 371.14453125 C-76.51540323 372.19810255 -76.21440022 373.25167385 -75.90427589 374.33717155 C-72.32216932 386.87505621 -68.73870819 399.41255138 -65.15234375 411.94921875 C-63.83057916 416.57026961 -62.50895568 421.19136079 -61.1875 425.8125 C-60.87718842 426.89761871 -60.56687683 427.98273743 -60.24716187 429.10073853 C-55.34181445 446.25856663 -50.48196669 463.42903822 -45.63354492 480.60302734 C-41.06099007 496.79393549 -36.42469838 512.96561522 -31.75256348 529.12805176 C-22.69903799 560.44754284 -13.85044641 591.82219606 -5.05969238 623.21624756 C-3.68063646 628.14032391 -2.30022869 633.0640208 -0.91981506 637.98771667 C5.73971678 661.74246556 5.73971678 661.74246556 8.56494141 671.87011719 C9.53257649 675.33679654 10.50987748 678.80056298 11.49365234 682.26269531 C11.72880051 683.09535919 11.96394867 683.92802307 12.20622253 684.78591919 C12.64687474 686.34611079 13.09046303 687.90547735 13.53755188 689.46383667 C14.36575062 692.40736006 15 694.92547538 15 698 C6.63987365 696.66356772 0.63005513 692.36077513 -4.375 685.625 C-6.48658235 682.57893015 -8.23996072 679.53562913 -9.8125 676.19140625 C-12.15298905 671.41568065 -15.30558614 667.44380513 -18.625 663.3125 C-19.88831929 661.71507974 -21.1513388 660.11742235 -22.4140625 658.51953125 C-23.02926758 657.74561035 -23.64447266 656.97168945 -24.27832031 656.17431641 C-26.54974767 653.30572139 -28.77692498 650.40624591 -31 647.5 C-33.7189311 643.95607512 -36.4481317 640.42136481 -39.19921875 636.90234375 C-46.09887275 628.07376476 -52.89093026 619.17614992 -59.59326172 610.19677734 C-64.12608551 604.1352365 -68.75494283 598.16032268 -73.453125 592.2265625 C-77.27737257 587.39516577 -81.01772547 582.4991872 -84.76611328 577.60888672 C-86.8409258 574.90350197 -88.92068983 572.20192846 -91 569.5 C-93.4547444 566.30983188 -95.90864421 563.11903478 -98.359375 559.92578125 C-103.21714911 553.59956235 -108.09992302 547.29351992 -113 541 C-118.69372134 533.68714576 -124.35732018 526.35229969 -130 519 C-131.66609253 516.83289153 -133.33302098 514.66642661 -135 512.5 C-137.45472115 509.30981395 -139.90864417 506.11903483 -142.359375 502.92578125 C-147.1537507 496.68212532 -151.97406812 490.45958574 -156.8125 484.25 C-161.94690385 477.65964379 -167.03905063 471.03877735 -172.10473633 464.39550781 C-176.04016947 459.24033446 -180.01212783 454.11468815 -184 449 C-189.07252763 442.49417538 -194.10212535 435.9575438 -199.10327148 429.39672852 C-203.05627697 424.21727927 -207.05248554 419.07289142 -211.0625 413.9375 C-215.48248833 408.27648217 -219.83807459 402.57488273 -224.125 396.8125 C-228.51316298 390.91747488 -233.0335737 385.14749673 -237.64550781 379.42626953 C-241.18457338 375.03306632 -244.65121824 370.59365014 -248.07958984 366.11328125 C-251.61391982 361.4954239 -255.17783604 356.90114535 -258.75 352.3125 C-259.34280762 351.55090576 -259.93561523 350.78931152 -260.54638672 350.00463867 C-261.75934681 348.44654195 -262.97240086 346.88851837 -264.18554688 345.33056641 C-267.70787382 340.80632891 -271.22731152 336.27984338 -274.74682617 331.75341797 C-277.67417613 327.98892354 -280.60307017 324.22565082 -283.53515625 320.46484375 C-289.81287801 312.40898377 -296.05332926 304.32778318 -302.2331543 296.1965332 C-305.36588105 292.08941478 -308.56174945 288.04426507 -311.8215332 284.03735352 C-323.82114803 269.26555045 -332.65905786 255.79659576 -331 236 C-329.7831308 224.76862619 -323.36043669 217.19235498 -315 210 C-310.433199 206.44729249 -305.7349936 203.07335955 -301.046875 199.68359375 C-296.21833657 196.18447831 -291.50326202 192.55593812 -286.8125 188.875 C-280.67521916 184.06801625 -274.49215411 179.33484753 -268.24267578 174.67480469 C-262.69274867 170.53241851 -257.18848827 166.33208043 -251.6875 162.125 C-244.83950562 156.89156326 -237.95018189 151.72194008 -231 146.625 C-224.79133626 142.07151717 -218.64122885 137.46200175 -212.5546875 132.74609375 C-207.97440669 129.1987267 -203.360077 125.69599213 -198.75 122.1875 C-190.17845191 115.66148704 -181.61600507 109.12374697 -173.06054688 102.57666016 C-168.82958591 99.3392732 -164.59727196 96.10365511 -160.36523438 92.86767578 C-156.87327365 90.19749408 -153.38159641 87.52694377 -149.890625 84.85546875 C-145.59507776 81.56857399 -141.29788918 78.28383173 -137 75 C-136.18515137 74.37722168 -135.37030273 73.75444336 -134.53076172 73.11279297 C-124.99008776 65.82339126 -115.43121733 58.56118276 -105.8125 51.375 C-98.64452246 46.01848552 -91.55522101 40.57110653 -84.50708008 35.05810547 C-79.0754677 30.81625199 -73.58220517 26.66564948 -68.0534668 22.55151367 C-62.084841 18.09675044 -56.21594056 13.51771523 -50.37695312 8.89453125 C-34.82517228 -3.3237032 -19.05177676 -11.0861632 0 0 Z " fill="#D82F78" transform="translate(375,94)"/>
<path d="M0 0 C337.92 0 675.84 0 1024 0 C1024 337.92 1024 675.84 1024 1024 C686.08 1024 348.16 1024 0 1024 C0 686.08 0 348.16 0 0 Z M14 13 C14 342.34 14 671.68 14 1011 C342.68 1011 671.36 1011 1010 1011 C1010 681.66 1010 352.32 1010 13 C681.32 13 352.64 13 14 13 Z " fill="#33B4D8" transform="translate(0,0)"/>
<path d="M0 0 C0.03867187 1.51980469 0.03867187 1.51980469 0.078125 3.0703125 C0.13444181 4.42191597 0.19178833 5.77347681 0.25 7.125 C0.26417969 7.79015625 0.27835938 8.4553125 0.29296875 9.140625 C0.6200122 15.81231135 3.60452387 20.1083424 8.4375 24.5 C21.49729401 35.45181241 38.49946381 38.32931149 55 37 C64.65980572 35.71588211 77.75375283 31.56546991 84.3125 23.8125 C87.08201614 19.09566782 86.90373383 13.32964518 87 8 C87.67482422 8.51046875 87.67482422 8.51046875 88.36328125 9.03125 C92.39603732 12.06995999 96.46119882 15.05431407 100.5625 18 C104.90530246 21.14520513 108.99343794 24.4386115 113 28 C109.93851961 30.04098692 108.5389453 30.37090605 105 30.875 C93.67125456 32.79563499 83.91753422 36.51309593 77 46 C74.69358645 52.59809447 74.64984732 62.04662901 77.5 68.4375 C83.99934055 79.08729661 95.13761518 82.8993333 106.63378906 85.76660156 C120.89970034 88.96401926 135.32741497 87.61972675 148.16015625 80.37890625 C151.28363425 78.03795565 152.77245218 75.68264346 154 72 C154.22718496 69.43365139 154.41608184 66.88321893 154.5625 64.3125 C154.60568359 63.61060547 154.64886719 62.90871094 154.69335938 62.18554688 C154.7991736 60.45724794 154.90006581 58.7286489 155 57 C158.40013186 57.5765441 159.92670485 58.60997661 162.25 61.125 C167.75742039 66.88007741 173.86151486 71.93574976 180 77 C176.34469885 80.04380629 172.28419797 81.94647474 168.02734375 83.9921875 C166.84701317 84.565634 166.84701317 84.565634 165.64283752 85.15066528 C163.07637284 86.39624591 160.50700229 87.6356994 157.9375 88.875 C156.15869054 89.73664145 154.38004575 90.59862293 152.6015625 91.4609375 C148.20163393 93.5928787 143.79925083 95.7196871 139.39569092 97.84411621 C137.22712166 98.89041732 135.05899372 99.9376242 132.89111328 100.98535156 C126.25259287 104.19326235 119.60939708 107.39130941 112.96142578 110.57958984 C110.11804147 111.94338291 107.27576388 113.30946008 104.43359375 114.67578125 C95.92344954 118.7609834 87.40111255 122.8182295 78.8515625 126.8203125 C64.94987174 133.33015644 51.08463732 139.87351243 37.38037109 146.79296875 C31.18447725 149.91882511 24.95612378 152.96040854 18.6875 155.9375 C15.75294226 157.33917593 12.81907065 158.74228159 9.88525391 160.14550781 C6.88462425 161.5794086 3.88079499 163.00648725 0.87646484 164.43261719 C-3.97771949 166.73876826 -8.82358258 169.06181992 -13.66586304 171.39285278 C-15.62804814 172.33421192 -17.59273658 173.27037193 -19.55996704 174.20114136 C-22.35140407 175.52286523 -25.13337206 176.86287509 -27.9140625 178.20703125 C-28.75584549 178.60050751 -29.59762848 178.99398376 -30.46492004 179.39938354 C-36.67774126 182.43729275 -41.58889353 186.21812514 -44 193 C-44.43431366 195.60058317 -44.75466217 198.12207581 -44.99609375 200.7421875 C-45.07709824 201.58828583 -45.15810272 202.43438416 -45.24156189 203.30612183 C-46.6285928 218.96859922 -47.18674929 234.70892017 -47.93328857 250.4118042 C-48.27453603 257.57735608 -48.62284696 264.7425603 -48.97427177 271.90761948 C-49.09464518 274.38338265 -49.21159302 276.85928977 -49.32814026 279.3352356 C-49.69204101 286.91573069 -50.14251469 294.45582818 -51 302 C-55.59252738 299.07748257 -59.66220135 295.83685688 -63.75 292.25 C-68.61539508 288.02948569 -73.53479226 283.91220026 -78.5859375 279.9140625 C-84.71235628 275.05654599 -90.74227409 270.0836255 -96.68994141 265.00927734 C-101.68878434 260.74454075 -106.74599199 256.59100594 -111.9375 252.5625 C-117.44645928 248.28628262 -122.76497291 243.82870003 -128.03759766 239.26538086 C-132.01971125 235.82364109 -136.07437329 232.49959694 -140.203125 229.234375 C-144.59243523 225.72783107 -148.92033983 222.14713764 -153.24902344 218.56616211 C-157.01216748 215.45407676 -160.78693778 212.35936356 -164.59375 209.30078125 C-184.54561731 193.21328015 -184.54561731 193.21328015 -186 186 C-186.22869448 182.83109994 -186.1872022 179.65682058 -186.18359375 176.48046875 C-186.18258163 175.48532761 -186.18156952 174.49018646 -186.18052673 173.46488953 C-186.06909004 158.84704564 -185.08639585 144.25797349 -184.20404053 129.6708374 C-184.01407411 126.50563154 -183.8302894 123.34008 -183.6467371 120.17449665 C-183.42427649 116.34145976 -183.19874956 112.50860536 -182.97265625 108.67578125 C-182.93102922 107.96749994 -182.8894022 107.25921864 -182.84651375 106.52947426 C-182.44655669 99.76184319 -182.02442346 92.99584903 -181.51318359 86.2355957 C-181.44287933 85.30326614 -181.37257507 84.37093658 -181.30014038 83.41035461 C-180.6741702 78.38333985 -178.86208657 75.77339454 -175.15234375 72.4453125 C-174.09144531 71.67960937 -173.03054688 70.91390625 -171.9375 70.125 C-170.34228516 68.95324219 -170.34228516 68.95324219 -168.71484375 67.7578125 C-166 66 -166 66 -164 66 C-164.165 66.639375 -164.33 67.27875 -164.5 67.9375 C-165.86239497 76.2821692 -165.05222202 83.44500978 -161 91 C-154.10982099 99.44602589 -142.58155928 104.39002989 -132 106 C-116.4645562 107.42874634 -101.80293021 105.68689869 -88.69921875 96.625 C-84.11228129 92.23841153 -83.40009981 87.71983203 -82.8125 81.6875 C-82.73064453 80.94693359 -82.64878906 80.20636719 -82.56445312 79.44335938 C-82.36557412 77.63005077 -82.18130173 75.81515031 -82 74 C-82.66 74 -83.32 74 -84 74 C-84.45375 72.824375 -84.9075 71.64875 -85.375 70.4375 C-90.90098947 59.65137623 -104.38342403 56.05203421 -115 52 C-115 51.01 -115 50.02 -115 49 C-107.54967763 44.62293561 -100.04439057 40.42489529 -92.3125 36.5625 C-91.62994141 36.22089844 -90.94738281 35.87929688 -90.24414062 35.52734375 C-87.52140201 34.18102476 -84.88546126 32.96182042 -82 32 C-81.94392578 33.50240234 -81.94392578 33.50240234 -81.88671875 35.03515625 C-81.41547434 47.64244398 -81.41547434 47.64244398 -74.3125 57.6875 C-61.45729726 68.08304301 -45.07040149 70.44736997 -29 69 C-24.81143369 68.38473037 -20.98544874 67.41550144 -17 66 C-16.08347656 65.70609375 -15.16695312 65.4121875 -14.22265625 65.109375 C-8.91755265 63.02161029 -6.33520656 60.74478384 -3.875 55.5625 C-0.8769192 46.85735825 -0.20892494 37.88359787 -4.25 29.4375 C-5.48888067 27.15618427 -5.48888067 27.15618427 -7 25 C-7.5671875 24.16210938 -8.134375 23.32421875 -8.71875 22.4609375 C-11.57234993 19.38256771 -14.47950977 17.92330495 -18.25 16.1875 C-18.8996875 15.87619141 -19.549375 15.56488281 -20.21875 15.24414062 C-21.80721971 14.48494554 -23.40291263 13.74089481 -25 13 C-21.58240778 9.30615743 -17.42457603 7.2297453 -13.0625 4.8125 C-11.84530273 4.11737305 -11.84530273 4.11737305 -10.60351562 3.40820312 C-9.81783203 2.97056641 -9.03214844 2.53292969 -8.22265625 2.08203125 C-7.50859619 1.68218018 -6.79453613 1.2823291 -6.05883789 0.87036133 C-4 0 -4 0 0 0 Z " fill="#FEFDFD" transform="translate(759,401)"/>
<path d="M0 0 C-0.42920737 20.75846022 -1.27249435 41.49911693 -2.24227905 62.23846436 C-2.37265869 65.02759353 -2.49965817 67.81684359 -2.62368774 70.60626221 C-2.80129818 74.59082968 -2.99180467 78.57468325 -3.18359375 82.55859375 C-3.26179855 84.34611809 -3.26179855 84.34611809 -3.34158325 86.16975403 C-4.36344347 106.56367765 -4.36344347 106.56367765 -10.23751831 112.53100586 C-13.29009144 115.07526607 -16.54807154 116.95449495 -20.06640625 118.78125 C-21.2359359 119.409245 -21.2359359 119.409245 -22.42909241 120.04992676 C-31.83290127 125.05840187 -41.38506152 129.78341277 -50.9375 134.5 C-54.48974765 136.25747217 -58.04056377 138.0177921 -61.58984375 139.78125 C-62.45837982 140.21272339 -63.32691589 140.64419678 -64.22177124 141.08874512 C-70.99584532 144.46799132 -77.70019586 147.96927001 -84.38890076 151.51391602 C-91.86628283 155.47320161 -99.42838977 159.24380376 -107.015625 162.98828125 C-113.39395252 166.15340609 -119.70826344 169.41677035 -126 172.75 C-137.12471341 178.6372555 -148.39174283 184.2289801 -159.66601562 189.82275391 C-171.54211883 195.71941777 -183.33020356 201.75403273 -195.04486084 207.965271 C-198.95010977 210.03206727 -202.87198017 212.06390461 -206.8125 214.0625 C-207.53501953 214.43826172 -208.25753906 214.81402344 -209.00195312 215.20117188 C-209.70900391 215.55888672 -210.41605469 215.91660156 -211.14453125 216.28515625 C-211.74628174 216.59332275 -212.34803223 216.90148926 -212.96801758 217.21899414 C-215.60015198 218.23067238 -218.21599365 218.60362214 -221 219 C-221.26586529 202.21423208 -220.24283566 185.54595691 -219.18066406 168.79980469 C-218.5017061 157.91818032 -217.91780493 147.08812322 -217.8828125 136.18359375 C-217.84780061 133.53543145 -217.80748905 130.8874064 -217.76531982 128.23934937 C-217.75522698 126.59934237 -217.77123595 124.95893596 -217.81524658 123.31948853 C-218.13408759 111.26470131 -218.13408759 111.26470131 -214.57293701 107.4855957 C-210.43066217 104.23483901 -205.79126183 102.11226613 -201 100 C-199.53967278 99.2379135 -198.08259374 98.46946278 -196.6328125 97.6875 C-195.47523438 97.130625 -194.31765625 96.57375 -193.125 96 C-191.78296297 95.34557443 -190.4418482 94.6892549 -189.1015625 94.03125 C-188.09270996 93.53625 -188.09270996 93.53625 -187.06347656 93.03125 C-182.8766789 90.93884189 -178.75722153 88.71647378 -174.63720703 86.49609375 C-167.17527146 82.50018832 -159.57786124 78.7694581 -152 75 C-127.55510882 62.89834115 -127.55510882 62.89834115 -103.33935547 50.34863281 C-93.92836027 45.3413471 -84.35944077 40.64529984 -74.80761719 35.9140625 C-72.76676508 34.90266677 -70.72675148 33.88961898 -68.6875 32.875 C-68.03507324 32.55039795 -67.38264648 32.2257959 -66.71044922 31.89135742 C-62.40765039 29.73779743 -58.16580436 27.48375717 -53.9375 25.1875 C-46.70516431 21.27233847 -39.29958947 17.74641292 -31.8659668 14.23193359 C-24.24277398 10.62151089 -16.69819927 6.87232283 -9.20629883 2.99658203 C-8.43181396 2.60196777 -7.6573291 2.20735352 -6.859375 1.80078125 C-6.18358398 1.45184814 -5.50779297 1.10291504 -4.81152344 0.7434082 C-3 0 -3 0 0 0 Z " fill="#FEFEFE" transform="translate(939,486)"/>
<path d="M0 0 C4.57490024 3.94849082 7.63296637 8.47311785 9.5390625 14.19140625 C10.12894342 22.48377077 10.55453311 30.51150526 4.91015625 37.08984375 C0.06884496 41.72576608 -5.11503477 44.20269028 -11.4609375 46.19140625 C-12.14542969 46.41699219 -12.82992187 46.64257812 -13.53515625 46.875 C-29.61575418 51.316308 -45.89197909 47.37627297 -60.3671875 40.10546875 C-65.63519231 36.84622335 -69.59017558 32.6861225 -72.4609375 27.19140625 C-73.06722252 23.88373617 -73.11087093 20.67244657 -73.0859375 17.31640625 C-73.11816406 16.45660156 -73.15039062 15.59679687 -73.18359375 14.7109375 C-73.19390204 7.91777267 -71.11892821 4.05692777 -66.4609375 -0.80859375 C-48.6102244 -17.78055325 -18.48369295 -13.12790591 0 0 Z " fill="#C92971" transform="translate(827.4609375,474.80859375)"/>
<path d="M0 0 C6.00042061 4.570137 12.07109828 9.42119467 14 17 C14.81717197 23.5566033 14.65204063 30.31258641 11 36 C4.57790403 43.38405549 -3.35770388 47.54150143 -13 49 C-29.49782436 50.14634449 -45.75549786 49.0520001 -59 38 C-64.95214236 31.68784903 -67.5697903 25.602146 -67.37109375 16.90625 C-66.38875894 9.21301741 -61.93825698 2.9131873 -56.37890625 -2.30859375 C-40.11591393 -13.87160799 -15.67430646 -10.52581164 0 0 Z " fill="#C92970" transform="translate(738,508)"/>
<path d="M0 0 C-0.66 0 -1.32 0 -2 0 C-2 0.66 -2 1.32 -2 2 C-0.35 2.66 1.3 3.32 3 4 C2.34 16.54 1.68 29.08 1 42 C0.67 42 0.34 42 0 42 C-0.02944154 37.89584883 -0.04694527 33.79172544 -0.0625 29.6875 C-0.07087891 28.53958984 -0.07925781 27.39167969 -0.08789062 26.20898438 C-0.10808977 19.07868651 0.20281881 12.08655428 1 5 C0.40276123 5.28609131 -0.19447754 5.57218262 -0.80981445 5.86694336 C-2.61041886 6.72928464 -4.41112863 7.59140594 -6.21191406 8.45336914 C-8.30129075 9.45347315 -10.39047964 10.45396959 -12.47949219 11.45483398 C-17.34143346 13.78195805 -22.2054112 16.1032153 -27.08984375 18.3828125 C-35.78163983 22.4435419 -44.35153695 26.66155718 -52.80566406 31.19946289 C-60.4546737 35.29664881 -68.2311532 39.13702868 -76 43 C-101.15759978 55.43397222 -101.15759978 55.43397222 -126.06567383 68.35498047 C-133.30701168 72.20936188 -140.6561112 75.8464533 -148 79.5 C-156.51804603 83.73908136 -165.02370405 87.99365572 -173.4375 92.4375 C-174.17742188 92.82784424 -174.91734375 93.21818848 -175.6796875 93.62036133 C-179.26497744 95.52119712 -182.83010158 97.45375024 -186.37890625 99.421875 C-187.07508057 99.8041626 -187.77125488 100.1864502 -188.48852539 100.58032227 C-189.78828856 101.29575205 -191.083444 102.01964704 -192.37280273 102.75366211 C-193.87546998 103.57928705 -195.43505564 104.29956119 -197 105 C-197.99 104.67 -198.98 104.34 -200 104 C-199.37351562 103.75507812 -198.74703125 103.51015625 -198.1015625 103.2578125 C-197.28429687 102.88398437 -196.46703125 102.51015625 -195.625 102.125 C-194.81289063 101.77695312 -194.00078125 101.42890625 -193.1640625 101.0703125 C-190.49598909 98.5178235 -190.89051951 97.9032423 -190.75390625 94.36328125 C-190.08162658 90.2412636 -189.27465194 89.20247815 -185.84863281 86.67675781 C-181.46569997 84.20429234 -176.89144648 82.14071605 -172.3125 80.0625 C-170.64772577 79.27438152 -168.98456253 78.48285143 -167.32299805 77.68798828 C-163.27211499 75.75852216 -159.20461072 73.86775435 -155.13037109 71.98822021 C-151.37410881 70.24579406 -147.64991582 68.43775713 -143.92260742 66.63452148 C-141.27311712 65.35599558 -138.61611715 64.09437231 -135.95703125 62.8359375 C-129.1735093 59.6175554 -122.42177916 56.33415538 -115.66833496 53.05328369 C-99.11229766 45.01107416 -82.54490384 36.99563192 -65.875 29.19140625 C-62.93731301 27.81550295 -59.99981094 26.43920592 -57.0625 25.0625 C-56.33270935 24.72051575 -55.6029187 24.37853149 -54.85101318 24.02618408 C-45.40132284 19.59363388 -36.00905254 15.07241642 -26.6875 10.375 C-25.72312012 9.88950684 -24.75874023 9.40401367 -23.76513672 8.90380859 C-22.8526416 8.44441895 -21.94014648 7.9850293 -21 7.51171875 C-16.74434326 5.37025045 -12.4839212 3.24620183 -8.1875 1.1875 C-7.23230469 0.72730469 -6.27710938 0.26710938 -5.29296875 -0.20703125 C-3 -1 -3 -1 0 0 Z " fill="#CD246A" transform="translate(938,481)"/>
<path d="M0 0 C4.60241494 4.01236175 6.6320895 7.62684397 7.625 13.625 C7.80619819 16.72643874 7.88302649 18.44084786 6.17578125 21.0625 C-2.76767062 29.10155786 -14.12254118 29.83752613 -25.59570312 29.30419922 C-34.86947462 28.45924536 -45.41939369 22.84653817 -51.75 16.0625 C-53.5625 13.125 -53.5625 13.125 -53.3671875 10.6953125 C-51.78260698 5.6338854 -47.93404317 1.70757578 -43.56640625 -1.20703125 C-41.59705546 -2.232015 -39.63592529 -3.08393412 -37.5625 -3.875 C-36.53125 -4.2875 -35.5 -4.7 -34.4375 -5.125 C-22.71369599 -7.39412336 -10.41234094 -6.21087003 0 0 Z " fill="#FDFBFC" transform="translate(824.5625,389.875)"/>
<path d="M0 0 C1.95137606 1.42014846 3.75553673 2.86738498 5.52734375 4.50390625 C6.06875 4.97054688 6.61015625 5.4371875 7.16796875 5.91796875 C9.36375731 8.47972207 9.58892216 10.92850397 9.82421875 14.22265625 C9.46768287 16.96235305 8.8733746 17.90392088 6.90234375 19.81640625 C-4.10325255 27.57870305 -18.7310633 28.17767809 -31.6328125 25.9609375 C-39.35103373 23.85385146 -44.84475021 19.98297471 -49.47265625 13.50390625 C-50.59765625 11.12890625 -50.59765625 11.12890625 -50.47265625 8.50390625 C-48.2025397 3.53553713 -45.18730768 -0.64537428 -40.47265625 -3.49609375 C-27.3278803 -7.37211743 -11.99155695 -7.25555499 0 0 Z " fill="#FEFCFD" transform="translate(737.47265625,426.49609375)"/>
<path d="M0 0 C3.55379743 2.66968197 5.61765584 5.58501717 7.0390625 9.765625 C7.0390625 13.85538182 6.82368982 15.90743887 4.0390625 18.953125 C-6.39604666 25.25767012 -16.84581382 27.33365872 -28.9609375 25.765625 C-35.65717104 23.60601721 -41.52164167 20.27647499 -45.9609375 14.765625 C-47.82929894 11.02890211 -47.4945836 6.83548019 -46.9609375 2.765625 C-43.99349622 -1.94135082 -39.46136694 -3.8058429 -34.31640625 -5.5 C-22.01162213 -8.19301445 -10.75362676 -6.76921525 0 0 Z " fill="#FDFCFD" transform="translate(733.9609375,514.234375)"/>
<path d="M0 0 C2.64976539 2.49977867 4.52388868 4.27197713 4.90625 8 C4.23519737 14.87828947 4.23519737 14.87828947 1.59375 18 C-8.964574 23.61612979 -20.89800375 25.56967143 -32.59375 22.375 C-39.8679884 19.87630495 -46.23400936 16.19111393 -50.34375 9.5625 C-50.71117128 4.60231269 -49.14913351 1.95532254 -46.09375 -1.75 C-34.34420415 -14.12045681 -12.13763854 -9.46324361 0 0 Z " fill="#FDFBFD" transform="translate(900.34375,445.4375)"/>
<path d="M0 0 C1.49963124 1.2264065 2.94353717 2.44353717 4.3125 3.8125 C4.86292414 10.08733518 4.05100907 14.64051352 0.3125 19.8125 C-8.15065165 26.68881072 -19.30061064 25.6254622 -29.6875 24.8125 C-36.17314663 23.41184392 -40.97308051 20.40603694 -45.6875 15.8125 C-47.54094064 12.10561872 -47.14133272 7.85864239 -46.6875 3.8125 C-43.63071862 -1.59565168 -38.84401179 -4.44387525 -33.0625 -6.4375 C-21.35062073 -8.88675232 -9.72570184 -7.19459227 0 0 Z " fill="#FEFCFD" transform="translate(655.6875,465.1875)"/>
<path d="M0 0 C2.93074553 2.11050543 5.50395219 4.39453639 8 7 C8.495 7.495 8.495 7.495 9 8 C9.54071092 12.29023089 9.58421734 15.88236683 7.5625 19.75 C-0.00592397 26.39544543 -7.30676424 28.36316724 -17.21875 28.28125 C-25.29558829 27.68049343 -34.26270208 25.04009976 -40 19 C-42.56501427 15.39854101 -43.92178209 12.30363182 -44.1875 7.875 C-42.17096999 2.99287471 -38.64237094 0.42240532 -34.0625 -2.04296875 C-23.3803439 -6.35224763 -10.1489295 -5.13381522 0 0 Z " fill="#FDFBFC" transform="translate(815,476)"/>
<path d="M0 0 C4.3177458 0.50797009 8.03302114 1.19682779 12 3 C12 4.65 12 6.3 12 8 C11.34 8 10.68 8 10 8 C10.33 8.99 10.66 9.98 11 11 C10.32453125 10.79503906 9.6490625 10.59007812 8.953125 10.37890625 C8.06109375 10.10949219 7.1690625 9.84007812 6.25 9.5625 C5.36828125 9.29566406 4.4865625 9.02882813 3.578125 8.75390625 C-0.02833446 7.69929007 -3.34795119 6.88306319 -7.109375 6.68359375 C-7.86347656 6.64169922 -8.61757813 6.59980469 -9.39453125 6.55664062 C-10.56048828 6.49766602 -10.56048828 6.49766602 -11.75 6.4375 C-12.54277344 6.39431641 -13.33554687 6.35113281 -14.15234375 6.30664062 C-16.10137815 6.20097009 -18.05066748 6.10002034 -20 6 C-20 5.67 -20 5.34 -20 5 C-6.3667426 3.66742597 -6.3667426 3.66742597 0 5 C0 3.35 0 1.7 0 0 Z " fill="#CA2066" transform="translate(806,466)"/>
<path d="M0 0 C4.77576339 0.4682121 8.04476345 1.24331998 12 4 C11.01 4.495 11.01 4.495 10 5 C11.35021826 9.41889613 13.26115668 11.34345343 17 14 C16.67 14.66 16.34 15.32 16 16 C15.56171875 15.61328125 15.1234375 15.2265625 14.671875 14.828125 C5.2809356 7.11686582 -5.10603442 5.38367631 -17 5 C-17 4.67 -17 4.34 -17 4 C-15.41058594 3.94392578 -15.41058594 3.94392578 -13.7890625 3.88671875 C-12.40100576 3.82106742 -11.01298651 3.75461979 -9.625 3.6875 C-8.92632813 3.66494141 -8.22765625 3.64238281 -7.5078125 3.61914062 C-5.22711059 3.53015704 -5.22711059 3.53015704 -2 3 C-1.34 2.01 -0.68 1.02 0 0 Z " fill="#CF1962" transform="translate(643,453)"/>
<path d="M0 0 C1.65 0.33 3.3 0.66 5 1 C5 3.66666667 5 6.33333333 5 9 C-1.66500865 9.59244521 -6.86952975 7.48322845 -13 5 C-13 4.01 -13 3.02 -13 2 C-9.04 2 -5.08 2 -1 2 C-0.67 1.34 -0.34 0.68 0 0 Z " fill="#D95991" transform="translate(799,420)"/>
<path d="M0 0 C1.85913522 3.15288211 2.21433498 5.30816352 2.046875 8.9453125 C2.00554443 9.92830322 1.96421387 10.91129395 1.92163086 11.92407227 C1.86499268 12.98037842 1.80835449 14.03668457 1.75 15.125 C1.6991626 16.21417725 1.6483252 17.30335449 1.59594727 18.42553711 C0.98884468 30.6346575 0.02658568 42.81994195 -1 55 C-1.33 55 -1.66 55 -2 55 C-2.05637993 43.80903178 -1.93897797 32.63338775 -1.62768555 21.4465332 C-1.56111885 19.01198733 -1.50218832 16.57732195 -1.44335938 14.14257812 C-1.40150028 12.5859251 -1.35920031 11.02928385 -1.31640625 9.47265625 C-1.29969376 8.74885269 -1.28298126 8.02504913 -1.26576233 7.27931213 C-1.11445136 2.22890272 -1.11445136 2.22890272 0 0 Z " fill="#D52262" transform="translate(959,626)"/>
<path d="M0 0 C0.66 0.33 1.32 0.66 2 1 C-0.47016785 7.28769998 -6.06635583 9.69054926 -11.81640625 12.4609375 C-14 13 -14 13 -16.27734375 12.1015625 C-16.84582031 11.73804688 -17.41429687 11.37453125 -18 11 C-18 10.34 -18 9.68 -18 9 C-15.04817547 7.46627858 -12.08760757 5.95027306 -9.125 4.4375 C-8.28324219 3.99986328 -7.44148437 3.56222656 -6.57421875 3.11132812 C-5.76855469 2.70205078 -4.96289062 2.29277344 -4.1328125 1.87109375 C-3.38918457 1.48880615 -2.64555664 1.10651855 -1.87939453 0.71264648 C-1.25919434 0.47747314 -0.63899414 0.2422998 0 0 Z " fill="#CE2970" transform="translate(913,492)"/>
<path d="M0 0 C1.98 0 3.96 0 6 0 C6 1.65 6 3.3 6 5 C4.38007835 5.86375896 2.75388139 6.71575854 1.125 7.5625 C0.22007812 8.03816406 -0.68484375 8.51382813 -1.6171875 9.00390625 C-2.40351562 9.33261719 -3.18984375 9.66132812 -4 10 C-4.66 9.67 -5.32 9.34 -6 9 C-5.67 8.34 -5.34 7.68 -5 7 C-6.32 6.67 -7.64 6.34 -9 6 C-8.43410156 5.73445312 -7.86820313 5.46890625 -7.28515625 5.1953125 C-6.55167969 4.84210937 -5.81820312 4.48890625 -5.0625 4.125 C-4.33160156 3.77695312 -3.60070312 3.42890625 -2.84765625 3.0703125 C-0.83667541 2.1315023 -0.83667541 2.1315023 0 0 Z " fill="#D02E75" transform="translate(831,530)"/>
<path d="M0 0 C2.69565485 2.69565485 3.0982707 5.21680153 4.125 8.875 C4.47820313 10.10992187 4.83140625 11.34484375 5.1953125 12.6171875 C6 16 6 16 6 20 C-9.74487472 20.18451025 -9.74487472 20.18451025 -17 19 C-17 18.67 -17 18.34 -17 18 C-10.07 18 -3.14 18 4 18 C3.34 15.7725 2.68 13.545 2 11.25 C0.81193262 7.2402726 0 4.19672231 0 0 Z " fill="#D81C60" transform="translate(699,174)"/>
<path d="M0 0 C0.33 0.66 0.66 1.32 1 2 C1.66 2 2.32 2 3 2 C3 3.32 3 4.64 3 6 C0.6875 7.625 0.6875 7.625 -2 9 C-2.99 9.66 -3.98 10.32 -5 11 C-6.32 10.34 -7.64 9.68 -9 9 C-9 8.01 -9 7.02 -9 6 C-8.43410156 5.73445312 -7.86820313 5.46890625 -7.28515625 5.1953125 C-6.55167969 4.84210937 -5.81820312 4.48890625 -5.0625 4.125 C-4.33160156 3.77695312 -3.60070312 3.42890625 -2.84765625 3.0703125 C-0.83667541 2.1315023 -0.83667541 2.1315023 0 0 Z " fill="#CF2C73" transform="translate(858,517)"/>
<path d="M0 0 C0.66 0.33 1.32 0.66 2 1 C-1.41899441 4.9255121 -1.41899441 4.9255121 -4.4375 5.3125 C-8.03530526 6.27776482 -8.93003321 8.40344465 -10.7890625 11.50390625 C-11.18867187 11.99761719 -11.58828125 12.49132812 -12 13 C-12.99 13 -13.98 13 -15 13 C-15.66 14.32 -16.32 15.64 -17 17 C-16.72962417 12.53879884 -14.85142809 9.9300516 -11.95703125 6.71875 C-8.47250716 3.65848932 -4.37704869 1.51149883 0 0 Z " fill="#CB1E63" transform="translate(732,578)"/>
<path d="M0 0 C0.33 0.66 0.66 1.32 1 2 C0.67 2.598125 0.34 3.19625 0 3.8125 C-1.36795361 6.80489852 -1.15037776 7.90835977 0 11 C4.1255172 18.09328056 10.53087016 20.37734438 18 23 C18 23.33 18 23.66 18 24 C10.13143362 23.21314336 5.24988628 20.95933037 0 15 C-2.79163299 11.24573495 -3.59703275 8.67675654 -3 4 C-1.5 1.625 -1.5 1.625 0 0 Z " fill="#CA1B60" transform="translate(689,429)"/>
<path d="M0 0 C0.66 0.33 1.32 0.66 2 1 C1.46375 1.804375 0.9275 2.60875 0.375 3.4375 C0.01535156 3.98148438 -0.34429687 4.52546875 -0.71484375 5.0859375 C-1.64901845 6.47726152 -2.60214576 7.85591791 -3.56640625 9.2265625 C-4.10136719 9.99742187 -4.63632812 10.76828125 -5.1875 11.5625 C-5.69667969 12.28566406 -6.20585937 13.00882813 -6.73046875 13.75390625 C-8.104711 16.18525792 -8.59898972 18.25090541 -9 21 C-9.66 20.67 -10.32 20.34 -11 20 C-9.53881751 11.96349632 -5.95818839 5.63804692 0 0 Z " fill="#DB2469" transform="translate(295,227)"/>
<path d="M0 0 C0.515625 0.70125 1.03125 1.4025 1.5625 2.125 C5.92436774 7.26976708 10.85123468 12.22813668 17.6875 13.5 C18.450625 13.665 19.21375 13.83 20 14 C20.33 14.66 20.66 15.32 21 16 C21.99 16.66 22.98 17.32 24 18 C16.34722658 17.66727072 10.33352799 14.14371857 4.8046875 8.9296875 C0 3.65814777 0 3.65814777 0 0 Z " fill="#C21A5F" transform="translate(836,467)"/>
<path d="M0 0 C0.33 0 0.66 0 1 0 C1.12308347 11.05016019 0.83058514 21.97991499 0 33 C-0.33 33 -0.66 33 -1 33 C-1.19282973 28.94371612 -1.37145834 24.887077 -1.53710938 20.82958984 C-1.59540761 19.45018879 -1.65754312 18.07094424 -1.72363281 16.69189453 C-1.81810666 14.70651227 -1.89751548 12.7204313 -1.9765625 10.734375 C-2.02893066 9.54038086 -2.08129883 8.34638672 -2.13525391 7.11621094 C-2.00405325 4.09338565 -1.59901387 2.52131196 0 0 Z " fill="#DD377B" transform="translate(538,751)"/>
<path d="M0 0 C2.42130331 2.42130331 2.52840504 3.80111377 3.125 7.125 C3.29257812 8.03507813 3.46015625 8.94515625 3.6328125 9.8828125 C3.81457031 10.93082031 3.81457031 10.93082031 4 12 C0.39284183 11.43874637 -2.1822746 10.53544553 -5.25 8.5625 C-5.93578125 8.13066406 -6.6215625 7.69882812 -7.328125 7.25390625 C-9 6 -9 6 -10 4 C-9.443125 4.28875 -8.88625 4.5775 -8.3125 4.875 C-5.91505355 6.0413253 -3.48403061 7.0339881 -1 8 C-0.17361624 5.10765685 0 3.11257569 0 0 Z " fill="#CD1A5D" transform="translate(386,780)"/>
<path d="M0 0 C6.93 0 13.86 0 21 0 C21 0.33 21 0.66 21 1 C15.56359302 3.3508787 9.83991384 3.82041086 4 3 C2.68 2.01 1.36 1.02 0 0 Z " fill="#C92268" transform="translate(708,453)"/>
<path d="M0 0 C0.66 0.33 1.32 0.66 2 1 C1.46890625 1.43828125 0.9378125 1.8765625 0.390625 2.328125 C-5.71827396 7.81275692 -8.00182891 13.11248252 -10 21 C-12.0546875 17.34375 -12.0546875 17.34375 -11.5625 14.25 C-8.85183805 8.61182315 -4.41575535 4.36174 0 0 Z " fill="#E0206A" transform="translate(58,306)"/>
<path d="M0 0 C-2.3129482 2.3129482 -3.47904875 2.49580975 -6.625 3.125 C-7.44226563 3.29257812 -8.25953125 3.46015625 -9.1015625 3.6328125 C-10.04128906 3.81457031 -10.04128906 3.81457031 -11 4 C-11 4.66 -11 5.32 -11 6 C-13.89234315 6.82638376 -15.88742431 7 -19 7 C-19 6.34 -19 5.68 -19 5 C-17.58521865 4.35004703 -16.16808513 3.70521278 -14.75 3.0625 C-13.96109375 2.70285156 -13.1721875 2.34320313 -12.359375 1.97265625 C-8.1011292 0.21718737 -4.61124184 -0.10480095 0 0 Z " fill="#C92268" transform="translate(864,432)"/>
<path d="M0 0 C0.33 0 0.66 0 1 0 C1.25441431 4.43643308 1.4742144 8.87391449 1.6875 13.3125 C1.76033203 14.57513672 1.83316406 15.83777344 1.90820312 17.13867188 C1.96298828 18.34716797 2.01777344 19.55566406 2.07421875 20.80078125 C2.13182373 21.91622314 2.18942871 23.03166504 2.2487793 24.1809082 C2 27 2 27 0.49536133 28.88745117 C-0.24484253 29.43816284 -0.24484253 29.43816284 -1 30 C-1.17707265 19.96588331 -0.62277469 10.00887894 0 0 Z " fill="#DB387A" transform="translate(963,540)"/>
<path d="M0 0 C0.66 0.33 1.32 0.66 2 1 C3.99960012 1.039992 6.00047242 1.04346799 8 1 C8 1.33 8 1.66 8 2 C6.35 2 4.7 2 3 2 C3 2.99 3 3.98 3 5 C3.94875 5.12375 4.8975 5.2475 5.875 5.375 C9 6 9 6 11 8 C3.73846154 8.61538462 3.73846154 8.61538462 0 5.5 C-0.66 4.675 -1.32 3.85 -2 3 C-1.34 2.01 -0.68 1.02 0 0 Z " fill="#CF4180" transform="translate(783,420)"/>
<path d="M0 0 C2.95015394 1.39534308 5.57108337 3.01517659 8.25 4.875 C12.35766993 7.65431896 16.51899088 9.88170478 21 12 C18 13 18 13 15.2578125 11.92578125 C14.22398437 11.39339844 13.19015625 10.86101562 12.125 10.3125 C11.09632813 9.79300781 10.06765625 9.27351563 9.0078125 8.73828125 C1.45844504 4.37533512 1.45844504 4.37533512 0 0 Z " fill="#CE206B" transform="translate(771,405)"/>
<path d="M0 0 C1.32 0.33 2.64 0.66 4 1 C4 4.96 4 8.92 4 13 C3.01 13.33 2.02 13.66 1 14 C0.06380187 10.84493858 -0.1057123 8.03413498 -0.0625 4.75 C-0.05347656 3.85796875 -0.04445313 2.9659375 -0.03515625 2.046875 C-0.02355469 1.37140625 -0.01195312 0.6959375 0 0 Z " fill="#DE387B" transform="translate(540,682)"/>
<path d="M0 0 C2 1 2 1 2.68603516 2.73413086 C2.88503418 3.47026611 3.0840332 4.20640137 3.2890625 4.96484375 C3.50820313 5.76470703 3.72734375 6.56457031 3.953125 7.38867188 C4.17484375 8.22978516 4.3965625 9.07089844 4.625 9.9375 C4.85445313 10.77474609 5.08390625 11.61199219 5.3203125 12.47460938 C7 18.68845331 7 18.68845331 7 21 C6.01 21 5.02 21 4 21 C2.57584088 14.01556007 1.25397873 7.01694482 0 0 Z " fill="#D01C61" transform="translate(335,600)"/>
<path d="M0 0 C2 3 2 3 3.125 5.875 C5.64976701 10.08294501 8.82180789 11.6292753 13 14 C14.34935074 14.97827929 15.69325696 15.96549509 17 17 C15.02 17 13.04 17 11 17 C11 16.34 11 15.68 11 15 C10.278125 14.979375 9.55625 14.95875 8.8125 14.9375 C4.65062685 13.55020895 2.94012674 10.84250782 1 7 C0.36253601 4.5943877 0.15321239 2.50246908 0 0 Z " fill="#C6155C" transform="translate(607,473)"/>
<path d="M0 0 C2.27024968 -0.08097324 4.54132075 -0.13917704 6.8125 -0.1875 C8.07707031 -0.22230469 9.34164062 -0.25710937 10.64453125 -0.29296875 C14 0 14 0 17 3 C11.06 3 5.12 3 -1 3 C-0.67 2.01 -0.34 1.02 0 0 Z " fill="#D73B7A" transform="translate(736,239)"/>
<path d="M0 0 C-0.60328125 0.32613281 -1.2065625 0.65226562 -1.828125 0.98828125 C-3.02695312 1.64376953 -3.02695312 1.64376953 -4.25 2.3125 C-5.03890625 2.74175781 -5.8278125 3.17101562 -6.640625 3.61328125 C-8.89727134 4.9396214 -10.93998597 6.38884224 -13 8 C-13.66 7.34 -14.32 6.68 -15 6 C-10.8571467 1.22944166 -6.44982352 -2.14994117 0 0 Z " fill="#CC397A" transform="translate(694,503)"/>
<path d="M0 0 C6.625 -0.125 6.625 -0.125 10 1 C12.22574335 1.22451458 14.45581519 1.40782878 16.6875 1.5625 C17.86699219 1.64628906 19.04648437 1.73007813 20.26171875 1.81640625 C21.61716797 1.90728516 21.61716797 1.90728516 23 2 C23 2.33 23 2.66 23 3 C15.74 3 8.48 3 1 3 C0.67 2.01 0.34 1.02 0 0 Z " fill="#DC2068" transform="translate(593,185)"/>
<path d="M0 0 C2.4375 0.75 2.4375 0.75 5 2 C5.36351276 3.32542346 5.69309526 4.66033647 6 6 C7.09673003 7.8767734 7.09673003 7.8767734 8.4375 9.625 C8.86933594 10.21539063 9.30117188 10.80578125 9.74609375 11.4140625 C11.05410314 13.13152168 11.05410314 13.13152168 13 15 C12.67 15.99 12.34 16.98 12 18 C9.99224902 15.38084613 7.99515805 12.75375554 6 10.125 C5.42765625 9.37863281 4.8553125 8.63226562 4.265625 7.86328125 C3.72421875 7.14785156 3.1828125 6.43242188 2.625 5.6953125 C2.12226563 5.03547363 1.61953125 4.37563477 1.1015625 3.69580078 C0 2 0 2 0 0 Z " fill="#CD1F63" transform="translate(353,751)"/>
<path d="M0 0 C0 0.99 0 1.98 0 3 C-3.465 4.485 -3.465 4.485 -7 6 C-8 3 -8 3 -7 0 C-4.3333581 -1.33332095 -2.83319697 -0.67102033 0 0 Z " fill="#CF2B72" transform="translate(894,503)"/>
<path d="M0 0 C3 3 3 3 3.29296875 5.91796875 C3.25816406 6.99691406 3.22335937 8.07585937 3.1875 9.1875 C3.16042969 10.27417969 3.13335938 11.36085938 3.10546875 12.48046875 C3.07066406 13.31191406 3.03585937 14.14335937 3 15 C2.01 15 1.02 15 0 15 C0 10.05 0 5.1 0 0 Z " fill="#DA3A79" transform="translate(966,485)"/>
<path d="M0 0 C0.55945313 0.13277344 1.11890625 0.26554687 1.6953125 0.40234375 C9.09350026 2.03184813 16.44570812 2.58636442 24 3 C24 3.33 24 3.66 24 4 C17.4 4 10.8 4 4 4 C4 3.34 4 2.68 4 2 C2.68 1.67 1.36 1.34 0 1 C0 0.67 0 0.34 0 0 Z " fill="#C20F56" transform="translate(863,466)"/>
<path d="M0 0 C0.33 0 0.66 0 1 0 C1.05423638 1.91635217 1.09289963 3.83314925 1.125 5.75 C1.14820313 6.81734375 1.17140625 7.8846875 1.1953125 8.984375 C1.00487687 11.92470106 0.52670104 13.52361878 -1 16 C-2.36271133 13.27457733 -2.16923601 11.03912726 -2.1875 8 C-2.20167969 6.9275 -2.21585938 5.855 -2.23046875 4.75 C-2 2 -2 2 0 0 Z " fill="#D43D7D" transform="translate(712,650)"/>
<path d="M0 0 C0.33 0 0.66 0 1 0 C1.89299283 3.34872311 2.14811036 6.6135358 2.25 10.0625 C2.27578125 10.89910156 2.3015625 11.73570312 2.328125 12.59765625 C1.93391473 15.48383858 0.89807968 16.83718815 -1 19 C-1.02714735 16.77090129 -1.04646254 14.54170633 -1.0625 12.3125 C-1.07990234 10.45044922 -1.07990234 10.45044922 -1.09765625 8.55078125 C-1.01478673 5.53764546 -0.70839449 2.91724661 0 0 Z " fill="#DB3E7B" transform="translate(960,606)"/>
<path d="M0 0 C1.98 0 3.96 0 6 0 C6.33 1.65 6.66 3.3 7 5 C4.69 4.67 2.38 4.34 0 4 C0 2.68 0 1.36 0 0 Z " fill="#F7EEF3" transform="translate(794,424)"/>
<path d="M0 0 C0.66 0.33 1.32 0.66 2 1 C0.1875 3.5 0.1875 3.5 -2 6 C-2.99 6 -3.98 6 -5 6 C-5.33 6.99 -5.66 7.98 -6 9 C-7.65 9.33 -9.3 9.66 -11 10 C-7.50640535 6.40365256 -3.88901869 3.16548033 0 0 Z " fill="#DA1F65" transform="translate(134,248)"/>
<path d="M0 0 C5.61 0 11.22 0 17 0 C17.33 0.99 17.66 1.98 18 3 C11.71739294 3.23268915 6.11980533 2.40454548 0 1 C0 0.67 0 0.34 0 0 Z " fill="#CD377C" transform="translate(712,468)"/>
<path d="M0 0 C-1.98 0.33 -3.96 0.66 -6 1 C-6 1.66 -6 2.32 -6 3 C-9.47325181 4.1577506 -12.36067448 4.06866652 -16 4 C-13.71185277 1.71185277 -12.19248378 1.24548839 -9.125 0.3125 C-8.26132812 0.04050781 -7.39765625 -0.23148438 -6.5078125 -0.51171875 C-3.91305068 -1.01692938 -2.469215 -0.85561171 0 0 Z " fill="#D51F64" transform="translate(444,182)"/>
<path d="M0 0 C-1.40438887 3.39393978 -2.86383098 5.08345227 -6 7 C-7.98014432 7.72351427 -9.97821315 8.40265389 -12 9 C-3.25 0 -3.25 0 0 0 Z " fill="#DA1E65" transform="translate(273,144)"/>
<path d="M0 0 C6.63498399 0.35544557 10.63187218 2.13095043 16 6 C15.01 6.495 15.01 6.495 14 7 C12.23046875 6.22265625 12.23046875 6.22265625 10.1875 5.0625 C6.95780449 3.35058489 4.72537955 2.53432756 1 3 C0.67 2.01 0.34 1.02 0 0 Z " fill="#D71C60" transform="translate(361,90)"/>
<path d="M0 0 C0.99 0 1.98 0 3 0 C3 4.29 3 8.58 3 13 C2.01 13.495 2.01 13.495 1 14 C-0.20568053 9.32798795 -0.09382426 4.78503708 0 0 Z " fill="#DB4383" transform="translate(551,499)"/>
<path d="M0 0 C0.12181641 0.87398438 0.12181641 0.87398438 0.24609375 1.765625 C1.22972487 4.68084261 2.70618481 5.80510492 5.0625 7.75 C5.79597656 8.36359375 6.52945313 8.9771875 7.28515625 9.609375 C8.13400391 10.29773438 8.13400391 10.29773438 9 11 C8.67 11.66 8.34 12.32 8 13 C6.37133456 11.56665422 4.74719006 10.12817021 3.125 8.6875 C2.22007812 7.88699219 1.31515625 7.08648437 0.3828125 6.26171875 C-2 4 -2 4 -4 1 C-2 0 -2 0 0 0 Z " fill="#C81F67" transform="translate(930,465)"/>
<path d="M0 0 C-0.33 0.66 -0.66 1.32 -1 2 C-3.94140625 2.6328125 -3.94140625 2.6328125 -7.5625 3.125 C-8.76003906 3.29257813 -9.95757812 3.46015625 -11.19140625 3.6328125 C-12.11824219 3.75398437 -13.04507812 3.87515625 -14 4 C-12.66065756 1.32131513 -11.48307603 1.25045922 -8.6875 0.3125 C-7.90761719 0.04050781 -7.12773437 -0.23148438 -6.32421875 -0.51171875 C-3.81725489 -1.03839183 -2.39867657 -0.8178554 0 0 Z " fill="#DA2066" transform="translate(324,217)"/>
<path d="M0 0 C0.66 0.33 1.32 0.66 2 1 C-1.43361902 4.63559661 -4.7973607 7.36113346 -9 10 C-9.66 9.67 -10.32 9.34 -11 9 C-7.37 6.03 -3.74 3.06 0 0 Z " fill="#D7185F" transform="translate(255,156)"/>
<path d="M0 0 C0.66 0.33 1.32 0.66 2 1 C-1.28987415 4.68465905 -4.63720714 6.77894182 -9 9 C-9.99 9 -10.98 9 -12 9 C-8.04 6.03 -4.08 3.06 0 0 Z " fill="#D8185D" transform="translate(337,94)"/>
<path d="M0 0 C0.66 0.33 1.32 0.66 2 1 C2 4.3 2 7.6 2 11 C1.01 11.33 0.02 11.66 -1 12 C-1.02712066 10.56260487 -1.04645067 9.12506137 -1.0625 7.6875 C-1.07410156 6.88699219 -1.08570313 6.08648438 -1.09765625 5.26171875 C-1 3 -1 3 0 0 Z " fill="#D73B7C" transform="translate(493,770)"/>
<path d="M0 0 C1.33332095 2.6666419 0.67102033 4.16680303 0 7 C-0.99 7.33 -1.98 7.66 -3 8 C-3.33 8.99 -3.66 9.98 -4 11 C-3.56179109 6.44262737 -3.14958831 3.42346555 0 0 Z " fill="#C71B61" transform="translate(676,513)"/>
<path d="M0 0 C5.61 0.33 11.22 0.66 17 1 C17 1.33 17 1.66 17 2 C12.38 2.33 7.76 2.66 3 3 C3 2.34 3 1.68 3 1 C2.01 0.67 1.02 0.34 0 0 Z " fill="#C70F57" transform="translate(625,490)"/>
<path d="M0 0 C2 1 2 1 3.125 4.25 C3.85463482 7.37700635 4.19234975 9.82622905 4 13 C3.67 12.34 3.34 11.68 3 11 C2.34 11 1.68 11 1 11 C0.67 7.37 0.34 3.74 0 0 Z " fill="#CF2064" transform="translate(252,309)"/>
<path d="M0 0 C0.70189453 0.00451172 1.40378906 0.00902344 2.12695312 0.01367188 C3.85550538 0.02543073 5.58401365 0.04336546 7.3125 0.0625 C7.3125 0.3925 7.3125 0.7225 7.3125 1.0625 C6.08273437 1.15337891 6.08273437 1.15337891 4.828125 1.24609375 C3.21164062 1.37177734 3.21164062 1.37177734 1.5625 1.5 C0.49515625 1.58121094 -0.5721875 1.66242188 -1.671875 1.74609375 C-4.59347408 1.96216824 -4.59347408 1.96216824 -6.953125 2.72265625 C-7.81164062 2.89087891 -7.81164062 2.89087891 -8.6875 3.0625 C-9.3475 2.4025 -10.0075 1.7425 -10.6875 1.0625 C-7.06882441 -0.1437252 -3.76243749 -0.04566918 0 0 Z " fill="#DB548B" transform="translate(683.6875,235.9375)"/>
<path d="M0 0 C1.984375 1.17578125 1.984375 1.17578125 4 3 C4.390625 5.48046875 4.390625 5.48046875 4.25 8.1875 C4.21390625 9.08855469 4.1778125 9.98960937 4.140625 10.91796875 C4.09421875 11.60503906 4.0478125 12.29210937 4 13 C1.12420019 8.68630028 0 5.19265239 0 0 Z " fill="#C91A5F" transform="translate(404,680)"/>
<path d="M0 0 C0.33 1.65 0.66 3.3 1 5 C-2 6 -2 6 -4.1875 5.0625 C-4.785625 4.711875 -5.38375 4.36125 -6 4 C-6 3.34 -6 2.68 -6 2 C-2.25 0 -2.25 0 0 0 Z " fill="#D13074" transform="translate(901,499)"/>
<path d="M0 0 C0.66 0.33 1.32 0.66 2 1 C-0.25 3.5625 -0.25 3.5625 -3 6 C-5.3125 5.8125 -5.3125 5.8125 -7 5 C-4.88437775 2.67281553 -2.94982021 1.14186589 0 0 Z " fill="#D92168" transform="translate(844,642)"/>
<path d="M0 0 C0.33 1.32 0.66 2.64 1 4 C-0.96466413 5.06775224 -2.96855359 6.06553465 -5 7 C-5.66 6.67 -6.32 6.34 -7 6 C-4.69 4.02 -2.38 2.04 0 0 Z " fill="#DA2469" transform="translate(118,260)"/>
<path d="M0 0 C0.66 0.33 1.32 0.66 2 1 C-1.32307692 5.8 -1.32307692 5.8 -4.75 6.8125 C-5.4925 6.874375 -6.235 6.93625 -7 7 C-4.66666667 4.66666667 -2.33333333 2.33333333 0 0 Z " fill="#DC1F65" transform="translate(297,124)"/>
<path d="M0 0 C0.66 0 1.32 0 2 0 C2.6875 3.25 2.6875 3.25 3 7 C2.01 8.32 1.02 9.64 0 11 C0 7.37 0 3.74 0 0 Z " fill="#DA3B7C" transform="translate(495,715)"/>
<path d="M0 0 C0.66 0.33 1.32 0.66 2 1 C1.67 2.32 1.34 3.64 1 5 C1.66 5.33 2.32 5.66 3 6 C1.35 6.33 -0.3 6.66 -2 7 C-2.33 5.02 -2.66 3.04 -3 1 C-2.01 0.67 -1.02 0.34 0 0 Z " fill="#D23176" transform="translate(648,454)"/>
<path d="M0 0 C2.64 0 5.28 0 8 0 C8.33 0.99 8.66 1.98 9 3 C6.36 3 3.72 3 1 3 C0.67 2.01 0.34 1.02 0 0 Z " fill="#DB3E80" transform="translate(571,864)"/>
<path d="M0 0 C2.39119721 2.39119721 2.59712795 3.69644917 3 7 C2.67 7.99 2.34 8.98 2 10 C1.34 10 0.68 10 0 10 C-1 7 -1 7 0 4 C0 2.68 0 1.36 0 0 Z " fill="#D22168" transform="translate(386,780)"/>
<path d="M0 0 C7.75 -0.125 7.75 -0.125 10 1 C10 1.66 10 2.32 10 3 C3.47692308 3.36923077 3.47692308 3.36923077 1.0625 1.5 C0.5365625 0.7575 0.5365625 0.7575 0 0 Z " fill="#DC397C" transform="translate(576,184)"/>
<path d="M0 0 C-0.99 0.33 -1.98 0.66 -3 1 C-3 1.99 -3 2.98 -3 4 C-4.65 3.67 -6.3 3.34 -8 3 C-8 2.34 -8 1.68 -8 1 C-5.29120665 -0.35439668 -2.99066732 -0.06501451 0 0 Z " fill="#E090B1" transform="translate(797,423)"/>
<path d="M0 0 C0.598125 0.20625 1.19625 0.4125 1.8125 0.625 C-0.1675 1.945 -2.1475 3.265 -4.1875 4.625 C-4.5175 3.635 -4.8475 2.645 -5.1875 1.625 C-2.1875 -0.375 -2.1875 -0.375 0 0 Z " fill="#D8256A" transform="translate(879.1875,625.375)"/>
<path d="M0 0 C0.66 0.33 1.32 0.66 2 1 C0.35 2.65 -1.3 4.3 -3 6 C-3.66 5.34 -4.32 4.68 -5 4 C-3.35 2.68 -1.7 1.36 0 0 Z " fill="#DB1C64" transform="translate(304,119)"/>
</svg>
